#Comment line ignore any data following # character 
#Hierarchical Translation and Rotation (.htr) file 
[Header]	
#Header keywords are followed by a single value 
FileType HTR		#Single word string
DataType HTRS		#Translation followed by rotation and scale data
FileVersion 1		#integer
NumSegments 84		#integer
NumFrames 2		#integer
DataFrameRate 30		#integer, data frame rate in this file
EulerRotationOrder ZYX
CalibrationUnits mm
RotationUnits Degrees
GlobalAxisofGravity Y
BoneLengthAxis Y
ScaleFactor 1.00
[SegmentNames&Hierarchy]
#CHILD	PARENT
MASTER GLOBAL
root MASTER
chest root
L_mid_tent01 root
R_mid_tent01 root
spine01 root
Bip01_Neck chest
L_humerus chest
R_humerus chest
weapon_bone chest
Bip01_Head Bip01_Neck
eye_left_bone Bip01_Head
eye_right_bone Bip01_Head
L_forearm L_humerus
L_front_hand L_forearm
L_weapon_bone L_forearm
L_front_hand01_01 L_front_hand
L_front_hand02_01 L_front_hand
L_front_hand03_01 L_front_hand
L_front_hand01_02 L_front_hand01_01
L_front_hand02_02 L_front_hand02_01
L_front_hand03_02 L_front_hand03_01
R_forearm R_humerus
R_front_hand R_forearm
R_weapon_bone R_forearm
R_front_hand01_01 R_front_hand
R_front_hand02_01 R_front_hand
R_front_hand03_01 R_front_hand
R_front_hand01_02 R_front_hand01_01
R_front_hand02_02 R_front_hand02_01
R_front_hand03_02 R_front_hand03_01
null_rope01_connect L_mid_tent01
Rope1_Seg01 null_rope01_connect
Rope1_Seg02 Rope1_Seg01
Rope1_Seg03 Rope1_Seg02
Rope1_Seg04 Rope1_Seg03
Rope1_Seg05 Rope1_Seg04
Rope1_Seg06 Rope1_Seg05
Rope1_Seg07 Rope1_Seg06
Rope1_Seg09 Rope1_Seg07
L_mid_hand01 Rope1_Seg09
L_mid_hand02 Rope1_Seg09
L_mid_hand03 Rope1_Seg09
null_rope02_connect R_mid_tent01
Rope2_Seg01 null_rope02_connect
Rope2_Seg02 Rope2_Seg01
Rope2_Seg03 Rope2_Seg02
Rope2_Seg04 Rope2_Seg03
Rope2_Seg05 Rope2_Seg04
Rope2_Seg06 Rope2_Seg05
Rope2_Seg07 Rope2_Seg06
Rope2_Seg09 Rope2_Seg07
R_mid_hand01 Rope2_Seg09
R_mid_hand02 Rope2_Seg09
R_mid_hand03 Rope2_Seg09
spine02 spine01
spine03 spine02
pelvis spine03
null_rope03_connect pelvis
null_rope04_connect pelvis
Rope3_Seg01 null_rope03_connect
Rope3_Seg02 Rope3_Seg01
Rope3_Seg03 Rope3_Seg02
Rope3_Seg04 Rope3_Seg03
Rope3_Seg05 Rope3_Seg04
Rope3_Seg06 Rope3_Seg05
Rope3_Seg07 Rope3_Seg06
Rope3_Seg08 Rope3_Seg07
Rope3_Seg09 Rope3_Seg08
R_rear_hand01 Rope3_Seg09
R_rear_hand02 Rope3_Seg09
R_rear_hand03 Rope3_Seg09
Rope4_Seg01 null_rope04_connect
Rope4_Seg02 Rope4_Seg01
Rope4_Seg03 Rope4_Seg02
Rope4_Seg04 Rope4_Seg03
Rope4_Seg05 Rope4_Seg04
Rope4_Seg06 Rope4_Seg05
Rope4_Seg07 Rope4_Seg06
Rope4_Seg08 Rope4_Seg07
Rope4_Seg09 Rope4_Seg08
L_rear_hand01 Rope4_Seg09
L_rear_hand02 Rope4_Seg09
L_rear_hand03 Rope4_Seg09
[BasePosition]
#SegmentName Tx, Ty, Tz, Rx, Ry, Rz, BoneLength
MASTER 0.000000 0.000000 0.000000 -90.000000 0.000000 0.000000 10.000000 
root 0.000000 0.000000 0.000000 0.000000 0.000000 0.000000 10.000000 
chest 0.000000 0.000000 0.000000 0.000000 0.000000 0.000000 10.000000 
L_mid_tent01 0.000000 0.000000 0.000000 0.000000 0.000000 0.000000 10.000000 
R_mid_tent01 0.000000 0.000000 0.000000 0.000000 0.000000 0.000000 10.000000 
spine01 0.000000 0.000000 0.000000 0.000000 0.000000 0.000000 10.000000 
Bip01_Neck 0.000000 0.000000 0.000000 0.000000 0.000000 0.000000 10.000000 
L_humerus 0.000000 0.000000 0.000000 0.000000 0.000000 0.000000 10.000000 
R_humerus 0.000000 0.000000 0.000000 0.000000 0.000000 0.000000 10.000000 
weapon_bone 0.000000 0.000000 0.000000 0.000000 0.000000 0.000000 10.000000 
Bip01_Head 0.000000 0.000000 0.000000 0.000000 0.000000 0.000000 10.000000 
eye_left_bone 0.000000 0.000000 0.000000 0.000000 0.000000 0.000000 10.000000 
eye_right_bone 0.000000 0.000000 0.000000 0.000000 0.000000 0.000000 10.000000 
L_forearm 0.000000 0.000000 0.000000 0.000000 0.000000 0.000000 10.000000 
L_front_hand 0.000000 0.000000 0.000000 0.000000 0.000000 0.000000 10.000000 
L_weapon_bone 0.000000 0.000000 0.000000 0.000000 0.000000 0.000000 10.000000 
L_front_hand01_01 0.000000 0.000000 0.000000 0.000000 0.000000 0.000000 10.000000 
L_front_hand02_01 0.000000 0.000000 0.000000 0.000000 0.000000 0.000000 10.000000 
L_front_hand03_01 0.000000 0.000000 0.000000 0.000000 0.000000 0.000000 10.000000 
L_front_hand01_02 0.000000 0.000000 0.000000 0.000000 0.000000 0.000000 10.000000 
L_front_hand02_02 0.000000 0.000000 0.000000 0.000000 0.000000 0.000000 10.000000 
L_front_hand03_02 0.000000 0.000000 0.000000 0.000000 0.000000 0.000000 10.000000 
R_forearm 0.000000 0.000000 0.000000 0.000000 0.000000 0.000000 10.000000 
R_front_hand 0.000000 0.000000 0.000000 0.000000 0.000000 0.000000 10.000000 
R_weapon_bone 0.000000 0.000000 0.000000 0.000000 0.000000 0.000000 10.000000 
R_front_hand01_01 0.000000 0.000000 0.000000 0.000000 0.000000 0.000000 10.000000 
R_front_hand02_01 0.000000 0.000000 0.000000 0.000000 0.000000 0.000000 10.000000 
R_front_hand03_01 0.000000 0.000000 0.000000 0.000000 0.000000 0.000000 10.000000 
R_front_hand01_02 0.000000 0.000000 0.000000 0.000000 0.000000 0.000000 10.000000 
R_front_hand02_02 0.000000 0.000000 0.000000 0.000000 0.000000 0.000000 10.000000 
R_front_hand03_02 0.000000 0.000000 0.000000 0.000000 0.000000 0.000000 10.000000 
null_rope01_connect 0.000000 0.000000 0.000000 0.000000 0.000000 0.000000 10.000000 
Rope1_Seg01 0.000000 0.000000 0.000000 0.000000 0.000000 0.000000 10.000000 
Rope1_Seg02 0.000000 0.000000 0.000000 0.000000 0.000000 0.000000 10.000000 
Rope1_Seg03 0.000000 0.000000 0.000000 0.000000 0.000000 0.000000 10.000000 
Rope1_Seg04 0.000000 0.000000 0.000000 0.000000 0.000000 0.000000 10.000000 
Rope1_Seg05 0.000000 0.000000 0.000000 0.000000 0.000000 0.000000 10.000000 
Rope1_Seg06 0.000000 0.000000 0.000000 0.000000 0.000000 0.000000 10.000000 
Rope1_Seg07 0.000000 0.000000 0.000000 0.000000 0.000000 0.000000 10.000000 
Rope1_Seg09 0.000000 0.000000 0.000000 0.000000 0.000000 0.000000 10.000000 
L_mid_hand01 0.000000 0.000000 0.000000 0.000000 0.000000 0.000000 10.000000 
L_mid_hand02 0.000000 0.000000 0.000000 0.000000 0.000000 0.000000 10.000000 
L_mid_hand03 0.000000 0.000000 0.000000 0.000000 0.000000 0.000000 10.000000 
null_rope02_connect 0.000000 0.000000 0.000000 0.000000 0.000000 0.000000 10.000000 
Rope2_Seg01 0.000000 0.000000 0.000000 0.000000 0.000000 0.000000 10.000000 
Rope2_Seg02 0.000000 0.000000 0.000000 0.000000 0.000000 0.000000 10.000000 
Rope2_Seg03 0.000000 0.000000 0.000000 0.000000 0.000000 0.000000 10.000000 
Rope2_Seg04 0.000000 0.000000 0.000000 0.000000 0.000000 0.000000 10.000000 
Rope2_Seg05 0.000000 0.000000 0.000000 0.000000 0.000000 0.000000 10.000000 
Rope2_Seg06 0.000000 0.000000 0.000000 0.000000 0.000000 0.000000 10.000000 
Rope2_Seg07 0.000000 0.000000 0.000000 0.000000 0.000000 0.000000 10.000000 
Rope2_Seg09 0.000000 0.000000 0.000000 0.000000 0.000000 0.000000 10.000000 
R_mid_hand01 0.000000 0.000000 0.000000 0.000000 0.000000 0.000000 10.000000 
R_mid_hand02 0.000000 0.000000 0.000000 0.000000 0.000000 0.000000 10.000000 
R_mid_hand03 0.000000 0.000000 0.000000 0.000000 0.000000 0.000000 10.000000 
spine02 0.000000 0.000000 0.000000 0.000000 0.000000 0.000000 10.000000 
spine03 0.000000 0.000000 0.000000 0.000000 0.000000 0.000000 10.000000 
pelvis 0.000000 0.000000 0.000000 0.000000 0.000000 0.000000 10.000000 
null_rope03_connect 0.000000 0.000000 0.000000 0.000000 0.000000 0.000000 10.000000 
null_rope04_connect 0.000000 0.000000 0.000000 0.000000 0.000000 0.000000 10.000000 
Rope3_Seg01 0.000000 0.000000 0.000000 0.000000 0.000000 0.000000 10.000000 
Rope3_Seg02 0.000000 0.000000 0.000000 0.000000 0.000000 0.000000 10.000000 
Rope3_Seg03 0.000000 0.000000 0.000000 0.000000 0.000000 0.000000 10.000000 
Rope3_Seg04 0.000000 0.000000 0.000000 0.000000 0.000000 0.000000 10.000000 
Rope3_Seg05 0.000000 0.000000 0.000000 0.000000 0.000000 0.000000 10.000000 
Rope3_Seg06 0.000000 0.000000 0.000000 0.000000 0.000000 0.000000 10.000000 
Rope3_Seg07 0.000000 0.000000 0.000000 0.000000 0.000000 0.000000 10.000000 
Rope3_Seg08 0.000000 0.000000 0.000000 0.000000 0.000000 0.000000 10.000000 
Rope3_Seg09 0.000000 0.000000 0.000000 0.000000 0.000000 0.000000 10.000000 
R_rear_hand01 0.000000 0.000000 0.000000 0.000000 0.000000 0.000000 10.000000 
R_rear_hand02 0.000000 0.000000 0.000000 0.000000 0.000000 0.000000 10.000000 
R_rear_hand03 0.000000 0.000000 0.000000 0.000000 0.000000 0.000000 10.000000 
Rope4_Seg01 0.000000 0.000000 0.000000 0.000000 0.000000 0.000000 10.000000 
Rope4_Seg02 0.000000 0.000000 0.000000 0.000000 0.000000 0.000000 10.000000 
Rope4_Seg03 0.000000 0.000000 0.000000 0.000000 0.000000 0.000000 10.000000 
Rope4_Seg04 0.000000 0.000000 0.000000 0.000000 0.000000 0.000000 10.000000 
Rope4_Seg05 0.000000 0.000000 0.000000 0.000000 0.000000 0.000000 10.000000 
Rope4_Seg06 0.000000 0.000000 0.000000 0.000000 0.000000 0.000000 10.000000 
Rope4_Seg07 0.000000 0.000000 0.000000 0.000000 0.000000 0.000000 10.000000 
Rope4_Seg08 0.000000 0.000000 0.000000 0.000000 0.000000 0.000000 10.000000 
Rope4_Seg09 0.000000 0.000000 0.000000 0.000000 0.000000 0.000000 10.000000 
L_rear_hand01 0.000000 0.000000 0.000000 0.000000 0.000000 0.000000 10.000000 
L_rear_hand02 0.000000 0.000000 0.000000 0.000000 0.000000 0.000000 10.000000 
L_rear_hand03 0.000000 0.000000 0.000000 0.000000 0.000000 0.000000 10.000000 
#Beginning of Data. Separated by tabs
#Fr	Tx	Ty	Tz	Rx	Ry	Rz	SF
[MASTER]
5 -385.672729 -26.834780 75.825203 0.001660 0.001660 0.001660 393.970825
6 -482.090881 -33.543476 94.781494 0.001660 0.001660 0.001660 492.463531
[root]
5 -16.502304 -49.044216 1825.534912 -120.661469 -19.832512 -61.578022 1826.268188
6 -16.502304 -62.822098 1869.318848 -124.337692 -20.786900 -57.013470 1870.446899
[chest]
5 -84.512650 -34.090519 0.000000 -0.774961 1.451591 171.185532 91.129311
6 -84.512650 -34.090519 0.000000 -2.019906 0.602782 171.823990 91.129311
[L_mid_tent01]
5 27.299110 22.179159 -249.918701 -7.644668 33.128208 54.052650 252.381683
6 27.299112 22.179163 -249.918701 -1.379268 36.511192 66.497536 252.381683
[R_mid_tent01]
5 23.228794 24.509907 226.238495 178.904739 -29.273905 50.833866 228.744751
6 23.228794 24.509907 226.238495 173.895706 -30.891880 58.389252 228.744751
[spine01]
5 -0.361383 -0.195265 0.000000 0.001951 0.001305 22.456774 0.410763
6 -0.361383 -0.195265 0.000000 0.001952 0.001303 22.539139 0.410763
[Bip01_Neck]
5 165.484543 71.581718 0.000119 176.643677 -1.657967 43.431911 180.302734
6 165.484543 71.581718 0.000119 176.643677 -1.657967 43.431911 180.302734
[L_humerus]
5 -13.983130 -135.272980 -120.471481 154.870178 76.334038 -113.020325 181.680161
6 -13.983130 -135.272980 -120.471481 156.317398 70.210068 -112.010254 181.680161
[R_humerus]
5 -13.983309 -135.273102 125.287651 -177.747467 -73.667999 -86.336624 184.909012
6 -13.983309 -135.273102 125.287651 -172.382263 -66.903831 -92.553993 184.909012
[weapon_bone]
5 235.964890 -300.705902 0.000000 0.000000 -89.951546 -128.212341 382.234833
6 235.964890 -300.705902 0.000000 0.000000 -89.951546 -128.212341 382.234833
[Bip01_Head]
5 213.442169 185.720993 11.706108 4.962490 2.797846 -43.898743 283.172882
6 213.441666 185.722366 11.688396 4.962490 2.797846 -43.898743 283.172668
[eye_left_bone]
5 -24.626970 125.451866 -64.772606 0.000000 -90.000000 -99.840431 143.318359
6 -24.626970 125.451866 -64.772606 0.000000 -90.000000 -99.840431 143.318359
[eye_right_bone]
5 -24.626970 125.451866 64.327362 0.000000 -89.965736 80.156380 143.117676
6 -24.626970 125.451866 64.327362 0.000000 -89.965736 80.156380 143.117676
[L_forearm]
5 322.776093 0.000000 -0.000119 0.000163 -0.002342 -97.942467 322.776093
6 322.776093 0.000000 -0.000119 0.000119 -0.002344 -95.807457 322.776093
[L_front_hand]
5 241.149185 -0.042021 -3.300071 -178.649536 -1.820940 -28.049141 241.171753
6 241.149185 -0.042021 -3.300071 -178.667953 -1.835447 -27.422350 241.171753
[L_weapon_bone]
5 156.183838 0.000000 0.000000 0.000014 0.000007 0.000001 156.183838
6 156.183838 0.000000 0.000000 0.000014 0.000007 0.000001 156.183838
[L_front_hand01_01]
5 86.095154 20.947098 -0.655860 -0.366594 -0.477154 75.385574 88.609184
6 86.095154 20.947098 -0.655860 -0.366594 -0.477154 75.385574 88.609184
[L_front_hand02_01]
5 86.935165 -11.437475 24.513514 154.399796 -59.883835 -61.369587 91.046425
6 86.935165 -11.437475 24.513514 154.399796 -59.883835 -61.369587 91.046425
[L_front_hand03_01]
5 86.637497 -14.123976 -20.424902 -153.913849 58.118122 -62.702866 90.126129
6 86.637497 -14.123976 -20.424902 -153.913849 58.118122 -62.702866 90.126129
[L_front_hand01_02]
5 71.020905 -0.000179 0.000030 0.000326 -0.002325 -105.945732 71.020905
6 71.020905 -0.000179 0.000030 0.000325 -0.002325 -105.906792 71.020905
[L_front_hand02_02]
5 71.020927 -0.000119 0.000060 0.000326 -0.002325 -105.945732 71.020927
6 71.020927 -0.000119 0.000060 0.000325 -0.002325 -105.906792 71.020927
[L_front_hand03_02]
5 71.020905 -0.000060 0.000060 0.000326 -0.002325 -105.945732 71.020905
6 71.020905 -0.000060 0.000060 0.000325 -0.002325 -105.906792 71.020905
[R_forearm]
5 322.776428 -0.000060 0.000030 0.212536 0.020074 -96.418976 322.776428
6 322.776428 -0.000060 0.000030 0.209504 0.012586 -94.339050 322.776428
[R_front_hand]
5 238.847015 -0.006795 2.210259 -2.496336 -10.675905 -27.055285 238.857239
6 238.847015 -0.006795 2.210259 -2.635298 -10.645461 -26.312506 238.857239
[R_weapon_bone]
5 155.664093 0.002503 -0.000030 0.003487 0.001180 -90.988930 155.664078
6 155.664093 0.002503 -0.000030 0.003487 0.001180 -90.988930 155.664078
[R_front_hand01_01]
5 87.624611 14.231146 22.918642 -154.633499 -59.950619 61.746044 91.683487
6 87.624611 14.231146 22.918642 -154.633514 -59.950634 61.746063 91.683487
[R_front_hand02_01]
5 89.356956 14.367283 -19.491137 154.602661 58.302849 63.744389 92.579636
6 89.356956 14.367283 -19.491137 154.602661 58.302849 63.744389 92.579636
[R_front_hand03_01]
5 87.286232 -22.307278 -0.143439 0.162155 -0.423168 -75.767921 90.091743
6 87.286232 -22.307278 -0.143439 0.162155 -0.423168 -75.767921 90.091743
[R_front_hand01_02]
5 71.020905 0.000060 0.000119 0.002323 -0.000334 106.381714 71.020905
6 71.020905 0.000060 0.000119 0.002323 -0.000334 106.381714 71.020905
[R_front_hand02_02]
5 71.020844 -0.000030 -0.000119 0.002323 -0.000334 106.381714 71.020836
6 71.020844 -0.000030 -0.000119 0.002323 -0.000334 106.381714 71.020836
[R_front_hand03_02]
5 71.020905 0.000000 0.000030 0.002323 -0.000334 106.381714 71.020905
6 71.020905 0.000000 0.000030 0.002323 -0.000334 106.381714 71.020905
[null_rope01_connect]
5 328.732483 0.000000 -0.000238 -163.658279 -39.088909 -125.272682 328.732483
6 328.732483 0.000000 -0.000238 -162.187775 -35.421238 -131.961258 328.732483
[Rope1_Seg01]
5 0.000017 -0.000043 0.000135 16.836998 -6.177033 -132.314987 0.000143
6 0.000022 -0.000044 0.000131 68.548553 -14.389035 -115.980576 0.000140
[Rope1_Seg02]
5 139.999863 -0.000179 0.000000 8.188301 2.893092 1.800977 139.999863
6 139.999863 -0.000179 0.000000 -54.846386 -11.896284 -10.153762 139.999863
[Rope1_Seg03]
5 139.999924 0.000060 -0.000060 -7.640361 -0.388367 -5.168835 139.999924
6 139.999924 0.000060 -0.000060 -18.380629 -1.536856 -12.482298 139.999924
[Rope1_Seg04]
5 139.999924 -0.000060 -0.000119 29.944042 3.770712 13.203452 139.999924
6 139.999924 -0.000060 -0.000119 16.044113 3.040002 7.955033 139.999924
[Rope1_Seg05]
5 139.999832 0.000119 -0.000060 40.438824 12.237960 13.229345 139.999832
6 139.999832 0.000119 -0.000060 36.932236 7.493870 14.749818 139.999832
[Rope1_Seg06]
5 139.999954 0.000119 -0.000060 9.999778 7.239480 0.859714 139.999954
6 139.999954 0.000119 -0.000060 14.067641 6.866204 3.066446 139.999954
[Rope1_Seg07]
5 139.999985 0.000060 0.000000 4.531598 4.393203 -0.255358 139.999985
6 139.999985 0.000060 0.000000 6.953427 4.691761 0.792681 139.999985
[Rope1_Seg09]
5 121.602913 0.000119 -0.000089 -89.793175 -1.359789 0.847147 121.602913
6 121.602913 0.000119 -0.000089 -89.793175 -1.359789 0.847147 121.602913
[L_mid_hand01]
5 103.859421 1.038730 8.195221 130.095490 -67.358856 -38.382183 104.187431
6 103.859421 1.038730 8.195221 130.544373 -67.584534 -38.866943 104.187431
[L_mid_hand02]
5 105.572853 -4.139662 -10.864139 -168.652405 43.348949 -73.107704 106.211075
6 105.572853 -4.139662 -10.864139 -168.923172 43.409309 -73.498886 106.211075
[L_mid_hand03]
5 104.641464 17.579376 -3.913581 -6.108395 17.779198 74.588531 106.179977
6 104.641464 17.579376 -3.913581 -6.012627 17.808174 74.893669 106.179977
[null_rope02_connect]
5 328.732849 0.000179 -0.000119 -71.097557 44.456017 51.181168 328.732849
6 328.732849 0.000179 -0.000119 -68.733032 38.356998 58.360607 328.732849
[Rope2_Seg01]
5 0.000051 0.000119 -0.000017 0.870321 45.842762 -65.414848 0.000131
6 0.000054 0.000120 -0.000022 -6.664889 46.164368 -73.374527 0.000133
[Rope2_Seg02]
5 139.999741 -0.000060 -0.000119 2.224739 -6.197300 8.464371 139.999756
6 139.999741 -0.000060 -0.000119 2.170123 -2.162513 7.218518 139.999756
[Rope2_Seg03]
5 140.000107 0.000030 0.000000 17.970802 -4.623319 26.872021 140.000107
6 140.000107 0.000030 0.000000 11.590342 0.177764 22.792814 140.000107
[Rope2_Seg04]
5 139.999802 0.000000 -0.000060 -21.431944 -21.253456 -9.237360 139.999802
6 139.999802 0.000000 -0.000060 -2.115940 -10.222456 1.909344 139.999802
[Rope2_Seg05]
5 139.999985 -0.000060 0.000119 -34.930134 -11.137918 -37.209770 139.999985
6 139.999985 -0.000060 0.000119 -28.443447 -24.489952 -46.617668 139.999985
[Rope2_Seg06]
5 139.999893 -0.000030 -0.000119 -4.396753 2.155012 -7.868783 139.999893
6 139.999893 -0.000030 -0.000119 -4.381970 0.591762 -9.609188 139.999893
[Rope2_Seg07]
5 139.999893 0.000060 -0.000060 -1.811856 1.380610 -3.874350 139.999893
6 139.999893 0.000060 -0.000060 -1.714710 0.608379 -4.440445 139.999893
[Rope2_Seg09]
5 121.338966 0.000089 -0.000060 33.793236 -1.359788 -0.847141 121.338966
6 121.338966 0.000089 -0.000060 33.793236 -1.359788 -0.847141 121.338966
[R_mid_hand01]
5 104.680779 11.144459 -10.335981 -16.480762 45.159000 70.079010 105.778534
6 104.680779 11.144459 -10.335981 -16.212063 45.237247 70.462852 105.778534
[R_mid_hand02]
5 104.070427 2.443552 8.231699 49.518703 -67.538940 38.801071 104.424065
6 104.070427 2.443552 8.231699 49.067368 -67.749771 39.286453 104.424065
[R_mid_hand03]
5 106.028137 -11.221827 -5.996406 -177.019348 15.538846 -76.294624 106.788818
6 106.028137 -11.221827 -5.996406 -177.101105 15.551026 -76.585571 106.788818
[spine02]
5 129.756927 0.001550 0.000119 -0.881493 -3.997083 4.725235 129.756927
6 129.756927 0.001550 0.000119 -1.023899 -3.926965 6.770993 129.756927
[spine03]
5 78.614044 0.081682 -4.898995 1.133713 4.181901 5.489249 78.766579
6 78.614044 0.081656 -4.898995 1.040681 4.146420 4.212376 78.766579
[pelvis]
5 169.435242 0.051022 0.000000 0.013474 -0.165955 -8.140870 169.435257
6 169.435242 0.051022 0.000000 0.019518 -0.190233 -10.721436 169.435257
[null_rope03_connect]
5 -1.257226 -2.466202 137.391083 152.101578 -56.943829 -59.385750 137.418976
6 -1.257226 -2.466202 137.391083 152.261566 -53.075825 -54.658318 137.418976
[null_rope04_connect]
5 -1.259640 -2.480268 -137.844437 152.101578 -56.943829 -59.385750 137.872513
6 -1.259640 -2.480268 -137.844437 152.261566 -53.075825 -54.658318 137.872513
[Rope3_Seg01]
5 0.000000 0.000000 0.000000 14.248049 -5.521239 -57.519051 0.000000
6 0.000000 0.000000 0.000000 13.967402 -3.372218 -52.309296 0.000000
[Rope3_Seg02]
5 139.999924 -0.000119 0.000060 3.757796 12.833948 11.866458 139.999924
6 139.999924 -0.000119 0.000060 0.321772 9.809883 18.686474 139.999924
[Rope3_Seg03]
5 139.999924 -0.000119 0.000119 9.139815 17.155462 19.510670 139.999924
6 139.999924 -0.000119 0.000119 -17.919243 12.529486 31.299780 139.999924
[Rope3_Seg04]
5 139.999924 0.000119 0.000000 29.260750 15.638422 12.188986 139.999924
6 139.999924 0.000119 0.000000 -109.486351 -0.179585 21.997900 139.999924
[Rope3_Seg05]
5 139.999924 -0.000238 0.000060 38.953960 11.874554 -20.079979 139.999924
6 139.999924 -0.000238 0.000060 -41.974720 -22.742783 3.398202 139.999924
[Rope3_Seg06]
5 139.999893 -0.000119 -0.000060 10.173774 -4.909805 -25.855200 139.999893
6 139.999893 -0.000119 -0.000060 -8.040076 -30.352579 -17.275747 139.999893
[Rope3_Seg07]
5 139.999771 0.000060 -0.000119 3.440858 -3.800665 -15.096204 139.999771
6 139.999771 0.000060 -0.000119 0.597894 -11.961510 -11.852423 139.999771
[Rope3_Seg08]
5 139.999985 -0.000060 0.000000 1.139733 -1.817039 -5.860825 139.999985
6 139.999985 -0.000060 0.000000 0.617859 -5.452199 -5.441610 139.999985
[Rope3_Seg09]
5 90.185997 -0.000179 -0.000060 89.793228 -1.359877 -0.847183 90.185997
6 90.185997 -0.000179 -0.000060 89.793228 -1.359877 -0.847183 90.185997
[R_rear_hand01]
5 103.366196 -6.073594 -10.757982 172.988388 -15.229324 -75.191986 104.101845
6 103.366196 -6.073594 -10.757982 172.856537 -15.220671 -75.434441 104.101845
[R_rear_hand02]
5 100.509819 12.039542 -7.992327 -13.089580 36.801193 71.803032 101.543350
6 100.509819 12.039542 -7.992327 -12.874829 36.868488 72.167213 101.543350
[R_rear_hand03]
5 101.539970 5.215704 5.435467 71.770485 -71.527267 21.210228 101.819031
6 101.539970 5.215704 5.435467 71.484581 -71.816628 21.513813 101.819031
[Rope4_Seg01]
5 0.000010 0.000034 -0.000135 -99.669258 -4.460732 -88.617592 0.000140
6 0.000010 0.000033 -0.000131 -101.436493 -9.466573 -81.625389 0.000135
[Rope4_Seg02]
5 139.999985 0.000060 0.000119 -0.674114 7.199615 -0.501617 139.999985
6 139.999985 0.000060 0.000119 -1.811006 10.483500 -1.242362 139.999985
[Rope4_Seg03]
5 139.999924 0.000000 -0.000238 -0.369504 12.361958 -1.222331 139.999924
6 139.999924 0.000000 -0.000238 -1.295672 18.496675 -2.549663 139.999924
[Rope4_Seg04]
5 139.999985 0.000000 0.000119 1.656782 21.731754 -8.780671 139.999985
6 139.999985 0.000000 0.000119 2.156583 25.358475 -9.325653 139.999985
[Rope4_Seg05]
5 139.999802 -0.000060 -0.000119 0.959991 29.036999 20.998762 139.999802
6 139.999802 -0.000060 -0.000119 4.483521 27.393904 12.069165 139.999802
[Rope4_Seg06]
5 139.999924 0.000000 0.000060 -40.400246 17.549183 22.465635 139.999924
6 139.999924 0.000000 0.000060 -25.532412 23.764645 18.914631 139.999924
[Rope4_Seg07]
5 139.999802 0.000000 0.000000 -41.680584 0.677344 11.097935 139.999802
6 139.999802 0.000000 0.000000 -84.210213 6.628817 10.376217 139.999802
[Rope4_Seg08]
5 139.999924 0.000000 0.000119 -19.238539 -3.228621 4.102440 139.999924
6 139.999924 0.000000 0.000119 -30.643814 -4.578679 3.586779 139.999924
[Rope4_Seg09]
5 90.185791 0.000060 0.000060 -135.617828 2.228885 0.850567 90.185791
6 90.185791 0.000060 0.000060 -135.617828 2.228885 0.850567 90.185791
[L_rear_hand01]
5 101.696655 -8.392275 -7.654577 -13.100018 -36.799313 108.206543 102.329041
6 101.696655 -8.392275 -7.654577 -12.874829 -36.868488 107.832764 102.329041
[L_rear_hand02]
5 102.726799 -1.568258 5.773216 71.770462 71.527245 158.789749 102.900848
6 102.726799 -1.568258 5.773216 71.484581 71.816628 158.486160 102.900848
[L_rear_hand03]
5 104.552910 9.721220 -10.420293 -177.573471 -24.553633 -106.424133 105.519653
6 104.552910 9.721220 -10.420293 -177.714203 -24.565960 -106.089035 105.519653
